<svg xmlns="http://www.w3.org/2000/svg" viewBox="0 0 37.8 40"><defs><style>.cls-1{fill:#4775be;}</style></defs><g id="Layer_2" data-name="Layer 2"><g id="Layer_1-2" data-name="Layer 1"><path class="cls-1" d="M32.48,34.39c0,1.28,0,2.52,0,3.76A1.61,1.61,0,0,1,30.65,40H27.27a1.54,1.54,0,0,1-1.64-1.64c0-1.18,0-2.35,0-3.53v-.46H9.2c-.37,0-.47.1-.46.46,0,1.15,0,2.3,0,3.45A1.58,1.58,0,0,1,7,40H3.61a1.57,1.57,0,0,1-1.73-1.72V34.36h-.7A1.19,1.19,0,0,1,0,33.18Q0,28.59,0,24a1.21,1.21,0,0,1,1.26-1.18c1.8,0,3.61,0,5.41,0A2.19,2.19,0,0,0,8.6,21.9L9.26,21a3.28,3.28,0,0,1,2.68-1.33c3.5,0,7,0,10.51,0A3.26,3.26,0,0,1,25.09,21c.27.36.54.71.82,1.06a2,2,0,0,0,1.64.75c1.81,0,3.61,0,5.41,0a1.25,1.25,0,0,1,1.4,1.4c0,2.88,0,5.75,0,8.63a1.34,1.34,0,0,1-1.53,1.52A2.57,2.57,0,0,0,32.48,34.39ZM17.22,26.57H10.67c-.19,0-.52.07-.54.17a2.57,2.57,0,0,0-.06,1.1c.06.32.42.28.69.28H16.4c2.42,0,4.84,0,7.25,0,.21,0,.56-.08.58-.19a2.5,2.5,0,0,0,.07-1.09c-.05-.32-.4-.27-.66-.27Zm0-2.81H10.62c-.47,0-.61.14-.63.6,0,.1,0,.21,0,.31,0,.5.15.65.66.65H23.71c.56,0,.67-.15.66-.89,0-.53-.14-.67-.66-.67ZM4.86,25.64A2.65,2.65,0,1,0,7.5,28.28,2.63,2.63,0,0,0,4.86,25.64Zm22,2.64a2.65,2.65,0,1,0,2.67-2.64A2.62,2.62,0,0,0,26.88,28.28Zm-9.75,2.65c2.18,0,4.36,0,6.55,0,.2,0,.55-.08.57-.19a2.72,2.72,0,0,0,0-1.1c-.06-.3-.41-.25-.67-.25h-6c-2.32,0-4.64,0-7,0-.2,0-.55.08-.57.19a2.41,2.41,0,0,0,0,1.1c.06.31.41.25.67.25Z"/><path class="cls-1" d="M31.57,6.58h2.61a1.56,1.56,0,0,1,1.74,1.73v.76h.88a.93.93,0,0,1,1,1v6.11a.93.93,0,0,1-1,1h-.87c0,.34,0,.65,0,1a1.54,1.54,0,0,1-1.55,1.54H31.56v2.19h-1c-.68,0-1.36,0-2,0a1.71,1.71,0,0,1-1.39-.59c-.32-.35-.62-.71-.91-1.08a4.54,4.54,0,0,0-3.78-1.79q-5.23,0-10.47,0a4.42,4.42,0,0,0-3.68,1.73c-.31.38-.63.77-1,1.13a1.72,1.72,0,0,1-1.39.6c-1,0-2,0-3.07,0v-.47c0-4.51.06-9,0-13.52C2.74,4.58,4.32,2.77,7,1.59A18.29,18.29,0,0,1,12,.33,44.2,44.2,0,0,1,20.45.1a20.74,20.74,0,0,1,7.17,1.49A6,6,0,0,1,31.17,5C31.35,5.52,31.43,6,31.57,6.58Zm-14.4,0H6.51c-.91,0-1.19.28-1.19,1.19V16c0,.82.32,1.15,1.13,1.15h21.4c.9,0,1.2-.31,1.2-1.2V7.84c0-1-.27-1.26-1.25-1.26Zm.2-3.75h0c-1.79,0-3.57,0-5.36,0a1.17,1.17,0,0,0-.78.27A1.52,1.52,0,0,0,11,4.73c.14.49.59.6,1.07.6H22.63a1,1,0,0,0,1.12-1.11V3.91a1,1,0,0,0-1.09-1.08ZM34.65,17.19h-.84a.94.94,0,0,1-1-1q0-3.06,0-6.11a.94.94,0,0,1,1-1h.86a3.16,3.16,0,0,0,0-.76c-.06-.18-.24-.45-.38-.45-.89,0-1.78,0-2.7,0V18.39l.09,0h1.92C34.48,18.45,34.76,18.6,34.65,17.19Zm-9-13.14a.93.93,0,0,0,.93,1,1,1,0,0,0,.93-.92.93.93,0,0,0-.94-.95A.91.91,0,0,0,25.63,4.05ZM8.11,3.14A.94.94,0,0,0,8.14,5a.94.94,0,0,0,.91-.93A.92.92,0,0,0,8.11,3.14Z"/></g></g></svg>