<svg xmlns="http://www.w3.org/2000/svg" viewBox="0 0 40 33.73"><defs><style>.cls-1{fill:#4775be;fill-rule:evenodd;}</style></defs><g id="Layer_2" data-name="Layer 2"><g id="Layer_1-2" data-name="Layer 1"><path class="cls-1" d="M29.92,20.19V22.4h-8.5V20.19ZM18.58,18.61a56.87,56.87,0,0,1-4.09,5,12.41,12.41,0,0,1-3.15-3.78c.31,0,0-.31.94-.31.64,0,1.26,1.26,1.89,1.26.95,0,2.21-2.21,3.15-3.15C17.64,17.67,18.27,18.3,18.58,18.61Zm11.34-4.73v2.21h-8.5V13.88ZM18.58,12.31a58.36,58.36,0,0,1-4.09,5,12.53,12.53,0,0,1-3.15-3.78c.31,0,0-.31.94-.31.64,0,1.26,1.26,1.89,1.26.95,0,2.21-2.21,3.15-3.16C17.64,11.36,18.27,12,18.58,12.31ZM29.92,7.59v2.2h-8.5V7.59ZM18.58,6a58.36,58.36,0,0,1-4.09,5,12.53,12.53,0,0,1-3.15-3.78c.31,0,0-.32.94-.32.64,0,1.26,1.27,1.89,1.27.95,0,2.21-2.21,3.15-3.16C17.64,5.06,18.27,5.7,18.58,6ZM29.29,0C30.87-.29,35,2.54,35,4.75V24.92h-2.2V4.43c-.32-.31-2.21-2.2-3.16-2.2l-23,.31c.63.32,1.9,1,1.9,1.89V28.06c.94,2.84,2.83,3.47,4.41,3.47,1.88,0,5-1.89,4.72-5H40v1.89c-.31,1.26-2.83,5.35-5.35,5.35h-23C10.08,33.42,6.3,30,6.3,28.38V7.27H0V5.06C0,2.86,3.15-.29,5.67,0Z"/></g></g></svg>