<svg xmlns="http://www.w3.org/2000/svg" viewBox="0 0 98 80"><defs><style>.cls-1{fill:#262c33;}.cls-2{fill:#a7afb5;}.cls-3{fill:#4775be;}</style></defs><g id="Layer_2" data-name="Layer 2"><g id="Layer_1-2" data-name="Layer 1"><path class="cls-1" d="M34.75,35.54A1.54,1.54,0,0,1,33.2,34V27.62H20.79a1.54,1.54,0,1,1,0-3.08h14a1.54,1.54,0,0,1,1.54,1.54v4.45L50.64,17.6,36.1,4.93V9.27a1.54,1.54,0,0,1-1.55,1.54h-20a1.54,1.54,0,1,1,0-3.08H33V1.54A1.55,1.55,0,0,1,35.57.38L54,16.42a1.56,1.56,0,0,1,.53,1.14A1.6,1.6,0,0,1,54,18.72L35.78,35.14A1.53,1.53,0,0,1,34.75,35.54Z"/><path class="cls-2" d="M80.62,50.08a1.54,1.54,0,0,1-1.55-1.54V43.2H73.79a1.54,1.54,0,1,1,0-3.08h6.83a1.54,1.54,0,0,1,1.54,1.54v3.41l12-10.78L82,23.73v3.32a1.55,1.55,0,0,1-1.55,1.54H61.33a1.54,1.54,0,0,1,0-3.08H78.9V20.34a1.55,1.55,0,0,1,2.57-1.16l16,13.93A1.54,1.54,0,0,1,98,34.26a1.52,1.52,0,0,1-.51,1.15L81.66,49.69A1.57,1.57,0,0,1,80.62,50.08Z"/><path class="cls-3" d="M50.84,80a1.54,1.54,0,0,1-1.55-1.54v-9.9H16.12a1.54,1.54,0,1,1,0-3.08H50.84A1.55,1.55,0,0,1,52.39,67v8L74.82,54.77,52.11,35v7.76a1.55,1.55,0,0,1-1.55,1.54H21.73a1.54,1.54,0,1,1,0-3.08H49V31.6a1.55,1.55,0,0,1,2.57-1.16L78.17,53.59a1.53,1.53,0,0,1,.52,1.15,1.51,1.51,0,0,1-.5,1.15L51.88,79.6A1.56,1.56,0,0,1,50.84,80Z"/><path class="cls-3" d="M38.82,54.48H22.73a1.55,1.55,0,1,1,0-3.09H38.82a1.55,1.55,0,0,1,0,3.09Z"/><path class="cls-1" d="M21.76,19.12H8.19a1.54,1.54,0,0,1,0-3.08H21.76a1.54,1.54,0,1,1,0,3.08Z"/><ellipse class="cls-3" cx="8" cy="52.74" rx="1.55" ry="1.54"/><ellipse class="cls-3" cx="8" cy="67.04" rx="1.55" ry="1.54"/><ellipse class="cls-3" cx="16.39" cy="52.74" rx="1.55" ry="1.54"/><ellipse class="cls-1" cx="1.55" cy="17.58" rx="1.55" ry="1.54"/></g></g></svg>