<svg xmlns="http://www.w3.org/2000/svg" viewBox="0 0 380.11 80"><defs><style>.cls-1{font-size:26px;font-family:OpenSans-Bold, OpenSans Bold;font-weight:700;}.cls-1,.cls-8{fill:#333;}.cls-2{letter-spacing:-0.04em;}.cls-3{letter-spacing:0em;}.cls-4{letter-spacing:0.01em;}.cls-5{letter-spacing:0em;}.cls-6{letter-spacing:0em;}.cls-7{letter-spacing:0.01em;}.cls-8{font-size:16px;font-family:OpenSans;}.cls-9{letter-spacing:0em;}.cls-10{letter-spacing:0em;}.cls-11{letter-spacing:0em;}.cls-12{letter-spacing:-0.01em;}.cls-13{letter-spacing:-0.01em;}.cls-14{letter-spacing:-0.02em;}.cls-15{fill:#262c33;}.cls-16{fill:#a7afb5;}.cls-17{fill:#4775be;}</style></defs><g id="Layer_2" data-name="Layer 2"><g id="Layer_1-2" data-name="Layer 1"><text class="cls-1" transform="translate(117.63 38.48) scale(0.98 1)"><tspan class="cls-2">T</tspan><tspan class="cls-3" x="11.75" y="0">r</tspan><tspan x="20.12" y="0">ansition </tspan><tspan class="cls-4" x="112.37" y="0">S</tspan><tspan x="125.34" y="0">chool Dist</tspan><tspan class="cls-5" x="233.92" y="0">r</tspan><tspan class="cls-6" x="242.52" y="0">i</tspan><tspan class="cls-7" x="248.61" y="0">c</tspan><tspan x="260.59" y="0">t</tspan></text><text class="cls-8" transform="translate(117.63 66.48)"><tspan class="cls-9">D</tspan><tspan class="cls-10" x="10.72" y="0">edic</tspan><tspan class="cls-11" x="38.67" y="0">a</tspan><tspan class="cls-12" x="46.32" y="0">t</tspan><tspan class="cls-10" x="51.52" y="0">ed </tspan><tspan class="cls-13" x="71.95" y="0">t</tspan><tspan x="77.15" y="0">o E</tspan><tspan class="cls-14" x="97.2" y="0">x</tspan><tspan class="cls-12" x="104.37" y="0">c</tspan><tspan class="cls-10" x="111.44" y="0">ellen</tspan><tspan class="cls-13" x="143.9" y="0">c</tspan><tspan x="150.97" y="0">e</tspan></text><path class="cls-15" d="M34.75,35.54A1.54,1.54,0,0,1,33.2,34V27.62H20.79a1.54,1.54,0,1,1,0-3.08h14a1.54,1.54,0,0,1,1.54,1.54v4.45L50.64,17.6,36.1,4.93V9.27a1.54,1.54,0,0,1-1.55,1.54h-20a1.54,1.54,0,1,1,0-3.08H33V1.54A1.55,1.55,0,0,1,35.57.38L54,16.42a1.56,1.56,0,0,1,.53,1.14A1.6,1.6,0,0,1,54,18.72L35.78,35.14A1.53,1.53,0,0,1,34.75,35.54Z"/><path class="cls-16" d="M80.62,50.08a1.54,1.54,0,0,1-1.55-1.54V43.2H73.79a1.54,1.54,0,1,1,0-3.08h6.83a1.54,1.54,0,0,1,1.54,1.54v3.41l12-10.78L82,23.73v3.32a1.55,1.55,0,0,1-1.55,1.54H61.33a1.54,1.54,0,0,1,0-3.08H78.9V20.34a1.55,1.55,0,0,1,2.57-1.16l16,13.93A1.54,1.54,0,0,1,98,34.26a1.52,1.52,0,0,1-.51,1.15L81.66,49.69A1.57,1.57,0,0,1,80.62,50.08Z"/><path class="cls-17" d="M50.84,80a1.54,1.54,0,0,1-1.55-1.54v-9.9H16.12a1.54,1.54,0,1,1,0-3.08H50.84A1.55,1.55,0,0,1,52.39,67v8L74.82,54.77,52.11,35v7.76a1.55,1.55,0,0,1-1.55,1.54H21.73a1.54,1.54,0,1,1,0-3.08H49V31.6a1.55,1.55,0,0,1,2.57-1.16L78.17,53.59a1.53,1.53,0,0,1,.52,1.15,1.51,1.51,0,0,1-.5,1.15L51.88,79.6A1.56,1.56,0,0,1,50.84,80Z"/><path class="cls-17" d="M38.82,54.48H22.73a1.55,1.55,0,1,1,0-3.09H38.82a1.55,1.55,0,0,1,0,3.09Z"/><path class="cls-15" d="M21.76,19.12H8.19a1.54,1.54,0,0,1,0-3.08H21.76a1.54,1.54,0,1,1,0,3.08Z"/><ellipse class="cls-17" cx="8" cy="52.74" rx="1.55" ry="1.54"/><ellipse class="cls-17" cx="8" cy="67.04" rx="1.55" ry="1.54"/><ellipse class="cls-17" cx="16.39" cy="52.74" rx="1.55" ry="1.54"/><ellipse class="cls-15" cx="1.55" cy="17.58" rx="1.55" ry="1.54"/></g></g></svg>