<svg xmlns="http://www.w3.org/2000/svg" viewBox="0 0 40 36.78"><defs><style>.cls-1{fill:#4775be;}</style></defs><g id="Layer_2" data-name="Layer 2"><g id="Layer_1-2" data-name="Layer 1"><path class="cls-1" d="M12.42,32a4.2,4.2,0,0,1-3.64-1.85q-2.64-3.74-5.26-7.48a3.94,3.94,0,0,1-.77-2.93A4.14,4.14,0,0,1,6,16.07a4.06,4.06,0,0,1,4.41,1.76c1.22,1.71,2.41,3.44,3.66,5.13a4.47,4.47,0,0,0,1.08.75c0-1.46.07-2.59,0-3.71A6.56,6.56,0,0,0,12,14.77c-1.68-1.09-3.54-1-5.41-1a6.54,6.54,0,0,0-4.46,1.88,7.71,7.71,0,0,0-2.09,4V36.78c.32,0,.64-.08,1-.08H15.15V32Z"/><path class="cls-1" d="M37.72,17.76c-1.26,0-1.86.81-2.34,1.84-1.87,3.92-3.78,7.82-5.62,11.76a1.22,1.22,0,0,1-1.32.84c-3,0-6,0-9,0a2.25,2.25,0,0,0-2.52,2.52,2.27,2.27,0,0,0,2.55,2c3.58,0,7.16,0,10.75,0A2.85,2.85,0,0,0,33.09,35c2.26-4.81,4.6-9.58,6.91-14.36V19.53A2.42,2.42,0,0,0,37.72,17.76Z"/><path class="cls-1" d="M15,14.15A7.12,7.12,0,0,0,22,7a7.09,7.09,0,1,0-14.18.13A7.12,7.12,0,0,0,15,14.15Z"/><path class="cls-1" d="M18.31,30.58h6a2.68,2.68,0,0,0,2.43-1.37,2.86,2.86,0,0,0-2.61-4.34q-4.76,0-9.5,0a1.58,1.58,0,0,1-1.51-.8c-1.18-1.76-2.41-3.51-3.67-5.22a4.31,4.31,0,0,0-1.35-1.24,2.73,2.73,0,0,0-3.31.67,2.71,2.71,0,0,0-.31,3.37C6.32,24.3,8.18,26.91,10,29.5a2.6,2.6,0,0,0,2.23,1.08Z"/></g></g></svg>